<svg t="1641463271434" class="icon" viewBox="0 0 1024 1024" version="1.1" xmlns="http://www.w3.org/2000/svg" p-id="14313" width="200" height="200"><path d="M921.6 650.666667a27.733333 27.733333 0 0 1 27.733333 27.733333v228.266667a42.666667 42.666667 0 0 1-39.466666 42.56l-3.2 0.106666H678.4a27.733333 27.733333 0 0 1-27.733333-27.733333v-29.866667a27.733333 27.733333 0 0 1 27.733333-27.733333h185.6v-185.6a27.733333 27.733333 0 0 1 27.733333-27.733333h29.866667z m-537.685333-42.368l21.504 20.736a27.733333 27.733333 0 0 1 0.704 39.210666L217.344 864H345.6a27.733333 27.733333 0 0 1 27.733333 27.733333v29.866667a27.733333 27.733333 0 0 1-27.733333 27.733333H117.333333a42.666667 42.666667 0 0 1-42.56-39.466666L74.666667 906.666667V678.4a27.733333 27.733333 0 0 1 27.733333-27.733333h29.866667a27.733333 27.733333 0 0 1 27.733333 27.733333v122.133333l184.704-191.509333a27.733333 27.733333 0 0 1 39.210667-0.725333zM906.666667 74.666667a42.666667 42.666667 0 0 1 42.56 39.466666l0.106666 3.2v228.266667a27.733333 27.733333 0 0 1-27.733333 27.733333h-29.866667a27.733333 27.733333 0 0 1-27.733333-27.733333v-122.176l-184.704 191.573333a27.733333 27.733333 0 0 1-39.210667 0.704l-21.504-20.736a27.733333 27.733333 0 0 1-0.704-39.210666L806.613333 160H678.4a27.733333 27.733333 0 0 1-27.733333-27.733333V102.4a27.733333 27.733333 0 0 1 27.733333-27.733333h228.266667z m-561.066667 0a27.733333 27.733333 0 0 1 27.733333 27.733333v29.866667a27.733333 27.733333 0 0 1-27.733333 27.733333H160v185.6a27.733333 27.733333 0 0 1-27.733333 27.733333H102.4a27.733333 27.733333 0 0 1-27.733333-27.733333V117.333333a42.666667 42.666667 0 0 1 39.466666-42.56L117.333333 74.666667h228.266667z" p-id="14314"></path></svg>