<svg t="1641462849872" class="icon" viewBox="0 0 1280 1024" version="1.1" xmlns="http://www.w3.org/2000/svg" p-id="14040" width="200" height="200"><path d="M127.146667 1020.245333c-70.4 0-127.146667-56.789333-127.146667-127.146666V129.706667C0 59.306667 56.746667 2.56 127.146667 2.56s127.146667 56.746667 127.146666 127.146667v763.392c0 69.888-56.746667 127.146667-127.146666 127.146666z" fill="#1A76FC" p-id="14041"></path><path d="M743.978667 405.333333c-28.629333 64.085333-103.381333 92.714667-167.424 64.085334L75.221333 245.674667A126.549333 126.549333 0 0 1 11.178667 78.250667C39.765333 14.208 114.517333-14.421333 178.602667 14.208l501.333333 223.701333c64.042667 28.629333 92.672 103.850667 64.042667 167.424z" fill="#307FFF" opacity=".45" p-id="14042"></path><path d="M508.117333 404.906667a126.122667 126.122667 0 0 0 166.954667 62.549333L1172.48 240.853333a126.122667 126.122667 0 0 0-104.32-229.546666l-497.493333 226.602666A125.952 125.952 0 0 0 508.16 404.906667z" fill="#FFE000" opacity=".45" p-id="14043"></path><path d="M624.085333 861.056c-70.357333 0-127.146667-56.746667-127.146666-127.146667V352.426667c0-70.4 56.789333-127.146667 127.146666-127.146667 70.4 0 127.146667 56.746667 127.146667 127.146667v381.44c0 70.4-56.746667 127.146667-127.146667 127.146666z" fill="#00DC78" p-id="14044"></path><path d="M1120.085333 1020.245333c-70.4 0-127.146667-56.789333-127.146666-127.146666V129.706667c0-70.4 56.746667-127.146667 127.146666-127.146667s127.146667 56.746667 127.146667 127.146667v763.392c0 69.888-56.746667 127.146667-127.146667 127.146666z" fill="#FFD200" p-id="14045"></path><path d="M624.085333 352.469333m-127.146666 0a127.146667 127.146667 0 1 0 254.293333 0 127.146667 127.146667 0 1 0-254.293333 0Z" fill="#03E87A" p-id="14046"></path><path d="M624.085333 733.909333m-127.146666 0a127.146667 127.146667 0 1 0 254.293333 0 127.146667 127.146667 0 1 0-254.293333 0Z" fill="#00C667" p-id="14047"></path><path d="M1120.085333 893.098667m-127.146666 0a127.146667 127.146667 0 1 0 254.293333 0 127.146667 127.146667 0 1 0-254.293333 0Z" fill="#FFBC00" p-id="14048"></path><path d="M127.146667 893.098667m-127.146667 0a127.146667 127.146667 0 1 0 254.293333 0 127.146667 127.146667 0 1 0-254.293333 0Z" fill="#145AFF" p-id="14049"></path><path d="M214.016 38.442667L253.312 115.2l1.962667 211.584-180.053334-81.066667z" fill="#145AFF" p-id="14050"></path><path d="M1033.216 36.522667l-38.826667 76.672-1.92 211.626666 179.541334-81.066666z" fill="#FFBC00" p-id="14051"></path><path d="M127.146667 129.706667m-127.146667 0a127.146667 127.146667 0 1 0 254.293333 0 127.146667 127.146667 0 1 0-254.293333 0Z" fill="#318FFF" p-id="14052"></path><path d="M1120.085333 129.706667m-127.146666 0a127.146667 127.146667 0 1 0 254.293333 0 127.146667 127.146667 0 1 0-254.293333 0Z" fill="#FFE000" p-id="14053"></path></svg>